<?xml version="1.0" encoding="UTF-8" standalone="no"?>
<svg
   xmlns:dc="http://purl.org/dc/elements/1.1/"
   xmlns:cc="http://creativecommons.org/ns#"
   xmlns:rdf="http://www.w3.org/1999/02/22-rdf-syntax-ns#"
   xmlns:svg="http://www.w3.org/2000/svg"
   xmlns="http://www.w3.org/2000/svg"
   xmlns:sodipodi="http://sodipodi.sourceforge.net/DTD/sodipodi-0.dtd"
   xmlns:inkscape="http://www.inkscape.org/namespaces/inkscape"
   width="500"
   height="500"
   viewBox="0 0 132.29167 132.29167"
   version="1.1"
   id="svg8"
   inkscape:version="1.0 (4035a4fb49, 2020-05-01)"
   sodipodi:docname="동아리 로고파일.svg">
  <title
     id="title70">만화두레 로고</title>
  <defs
     id="defs2" />
  <sodipodi:namedview
     id="base"
     pagecolor="#ffffff"
     bordercolor="#666666"
     borderopacity="1.0"
     inkscape:pageopacity="1"
     inkscape:pageshadow="2"
     inkscape:zoom="0.7"
     inkscape:cx="254.89167"
     inkscape:cy="412.9648"
     inkscape:document-units="mm"
     inkscape:current-layer="layer1"
     inkscape:document-rotation="0"
     showgrid="false"
     units="px"
     inkscape:window-width="1920"
     inkscape:window-height="1001"
     inkscape:window-x="-9"
     inkscape:window-y="-9"
     inkscape:window-maximized="1" />
  <metadata
     id="metadata5">
    <rdf:RDF>
      <cc:Work
         rdf:about="">
        <dc:format>image/svg+xml</dc:format>
        <dc:type
           rdf:resource="http://purl.org/dc/dcmitype/StillImage" />
        <dc:title>만화두레 로고</dc:title>
        <dc:creator>
          <cc:Agent>
            <dc:title>만화두레</dc:title>
          </cc:Agent>
        </dc:creator>
        <dc:language></dc:language>
      </cc:Work>
    </rdf:RDF>
  </metadata>
  <g
     inkscape:label="레이어 1"
     inkscape:groupmode="layer"
     id="layer1">
    <path
       style="fill:#000000;stroke-width:0.264583"
       d="m 52.186691,125.46795 c 0.14239,-0.64828 -0.0573,-1.20196 -1.07329,-2.97656 -1.5062,-2.63073 -1.35339,-2.44979 -1.77405,-2.10068 -0.6142,0.50974 -1.04524,-0.0435 -0.84897,-1.08972 0.22405,-1.19429 0.75587,-1.70229 1.30501,-1.24654 0.21308,0.17684 1.11214,1.53087 1.99792,3.00896 1.40023,2.33654 1.70299,2.68743 2.31882,2.68743 0.46387,0 0.73986,0.16006 0.79976,0.46382 0.13201,0.66957 -1.3475,2.04972 -2.19729,2.04972 -0.64381,0 -0.68814,-0.0669 -0.52791,-0.79643 z m 27.91295,-1.26074 c -1.217,-0.13393 -3.42098,-0.89344 -4.28788,-1.47765 -0.4719,-0.31801 -1.43078,-1.28918 -2.13084,-2.15815 -1.59739,-1.98282 -2.26185,-4.03113 -2.58833,-7.97903 -0.23066,-2.78908 -0.20731,-3.07026 0.41253,-4.96911 0.36136,-1.107 0.65702,-2.12353 0.65702,-2.25894 0,-0.13542 -0.50601,-0.37405 -1.12447,-0.5303 -2.16477,-0.5469 -3.46297,-1.14149 -4.4611,-2.04324 -2.60147,-2.35027 -2.92117,-8.397059 -0.60399,-11.423879 1.12154,-1.46502 1.49502,-1.72215 3.26458,-2.24766 1.93367,-0.57423 4.37786,-0.53607 6.40714,0.10005 0.92247,0.28916 1.85581,0.527 2.07409,0.52853 0.21829,0.002 0.73628,-0.64678 1.15111,-1.4407 2.30636,-4.41402 8.05897,-5.10367 13.00521,-1.55911 0.9526,0.68265 2.1169,2.89636 2.52557,4.80193 0.24515,1.14312 0.2236,1.60464 -0.12236,2.61999 -0.23097,0.67785 -0.41994,1.32332 -0.41994,1.43439 0,0.11106 0.72183,0.58666 1.60406,1.05689 1.90671,1.01627 3.36372,2.57676 5.089909,5.451429 2.15657,3.59141 3.09905,7.31054 3.1242,12.32844 0.0116,2.31184 -0.18877,2.87281 -1.59434,4.46407 -2.764963,3.13024 -5.068209,4.16063 -9.943619,4.44842 -1.89178,0.11167 -3.91584,0.32974 -4.49792,0.4846 -1.01288,0.26948 -6.15746,0.52125 -7.54063,0.36903 z m 7.12867,-5.50072 c 1.02565,-0.51515 1.69886,-0.64605 3.3608,-0.65348 2.65334,-0.0119 5.23008,-0.7172 6.21378,-1.7009 0.40861,-0.40862 0.94274,-1.26613 1.18695,-1.90558 0.38712,-1.01364 0.40441,-1.44581 0.13489,-3.37236 -0.34745,-2.48373 -0.83073,-3.76295 -3.0205,-7.99525 -2.06491,-3.990979 -2.37113,-4.297979 -4.11936,-4.129999 -1.0779,0.10357 -1.48762,0.0301 -1.89673,-0.34014 -0.85781,-0.77631 -0.65373,-1.69335 0.67762,-3.04504 1.45985,-1.48212 1.6948,-2.49167 1.00535,-4.31969 -0.65592,-1.73909 -2.07905,-2.76271 -4.27188,-3.07267 -2.19342,-0.31003 -3.19382,0.0103 -4.51768,1.44649 -1.51014,1.63832 -1.48251,2.05621 0.41117,6.21942 2.25176,4.950449 2.81133,5.854479 3.9571,6.393059 2.05099,0.96408 3.11879,3.40949 2.49703,5.71854 -0.45293,1.68206 -1.2726,2.47418 -2.80012,2.70599 -2.14339,0.32529 -3.45075,-0.33728 -4.42251,-2.24134 -0.45351,-0.8886 -0.5117,-1.36216 -0.37893,-3.08386 0.14857,-1.9266 0.10064,-2.17866 -0.9072,-4.77103 -2.46283,-6.334929 -3.13742,-7.474819 -4.9799,-8.414789 -1.4919,-0.76111 -3.96531,-0.96648 -5.10819,-0.42415 -1.44176,0.68416 -2.61068,2.51597 -2.77718,4.3521 -0.12258,1.35188 -0.0546,1.65702 0.58454,2.62279 1.78095,2.691209 4.43865,3.617199 8.89193,3.098099 1.43081,-0.16678 1.77157,-0.13261 1.89538,0.19002 0.24538,0.63946 -0.39401,1.592 -1.62238,2.41699 -1.52393,1.02347 -1.9102,2.04318 -2.16614,5.71833 -0.28218,4.05175 -0.009,5.20312 1.67091,7.04116 1.27788,1.3982 2.39256,1.93252 4.82779,2.31419 1.63777,0.25669 4.37118,-0.1128 5.67346,-0.7669 z m -29.24779,4.96075 c -0.35635,-0.24269 -1.06597,-1.83166 -1.28734,-2.8826 -0.16041,-0.76154 -0.25542,-0.83423 -0.9173,-0.70186 -0.91916,0.18383 -2.2989,-0.49403 -2.53782,-1.24683 -0.27818,-0.87644 0.10555,-2.30795 0.73727,-2.75042 1.5333,-1.07396 2.51046,-0.091 3.74185,3.76411 0.52317,1.63788 0.95121,3.1489 0.95121,3.35783 0,0.47364 -0.33688,0.69882 -0.68787,0.45977 z m -2.27546,-4.86411 c 0.41589,-0.41588 0.4027,-1.05233 -0.0342,-1.6498 -0.29143,-0.39855 -0.45007,-0.42828 -0.92604,-0.17355 -0.89826,0.48073 -0.62555,2.14085 0.35168,2.14085 0.16007,0 0.43391,-0.14287 0.60854,-0.3175 z m 4.82887,3.05264 c -0.75286,-0.95711 -0.9396,-1.85494 -0.62834,-3.02106 0.2088,-0.7823 0.16916,-1.15774 -0.19703,-1.86588 -0.40437,-0.78195 -0.41441,-0.97168 -0.0851,-1.60847 0.65457,-1.26581 2.08897,-1.64672 3.2194,-0.85493 0.43669,0.30587 0.58804,0.67739 0.58804,1.44346 0,0.66404 0.23567,1.37886 0.66146,2.00629 1.45135,2.13869 0.44319,4.60504 -1.88239,4.60504 -0.89983,0 -1.2316,-0.13945 -1.67604,-0.70445 z m 2.67769,-1.05635 c 0.63501,-0.57467 0.61504,-1.5476 -0.0453,-2.20795 -0.88599,-0.886 -1.96519,-0.49822 -2.25237,0.80932 -0.32458,1.47777 1.19089,2.40026 2.29769,1.39863 z m -0.89674,-4.98337 c -0.041,-0.28956 -0.29183,-0.56789 -0.55732,-0.61851 -0.6031,-0.11499 -1.5129,0.67553 -1.329,1.15477 0.33836,0.88174 2.01954,0.4038 1.88632,-0.53626 z m 4.99657,4.98028 c -0.097,-0.097 -0.17639,-1.45165 -0.17639,-3.01031 0,-1.98386 -0.10187,-2.91847 -0.3396,-3.11577 -0.57312,-0.47565 -1.0607,0.0562 -0.86565,0.9442 0.12595,0.57345 0.0665,0.83458 -0.21441,0.94239 -0.46454,0.17826 -0.69701,-0.33565 -0.69701,-1.54087 0,-0.683 0.18224,-1.01615 0.79421,-1.45191 1.2236,-0.87128 1.92352,-0.62893 2.29335,0.79407 0.72898,2.80489 0.16251,7.39521 -0.7945,6.4382 z m -20.00934,-4.74992 c -1.24206,-1.04512 -1.5983,-1.95468 -1.5983,-4.0808 0,-1.48901 -0.11219,-2.03226 -0.52917,-2.56236 -0.65244,-0.82946 -0.67955,-1.39785 -0.0661,-1.3867 1.26907,0.0231 1.91823,1.34922 1.91823,3.91869 0,2.26158 0.70002,3.46769 2.01813,3.47718 0.84257,0.006 1.25864,-0.68767 1.25864,-2.09858 0,-1.68292 -0.96497,-3.15714 -4.07907,-6.23175 -1.32651,-1.30968 -2.641152,-2.82299 -2.921432,-3.36289 -1.3097,-2.52291 0.34225,-5.154069 2.808422,-4.473119 0.68919,0.19029 0.911,0.15907 1.02754,-0.14462 0.0817,-0.21301 0.25585,-0.32102 0.3869,-0.24003 0.13105,0.081 0.73988,-0.0297 1.35296,-0.24601 1.3048,-0.46037 1.7407,-0.30818 1.22523,0.42775 -0.3239,0.46244 -0.2756,0.769135 0.40355,2.562329 0.42432,1.12036 1.01298,2.69185 1.30813,3.49222 0.76825,2.08332 2.07502,6.30683 2.23855,7.23505 0.18332,1.04057 0.32005,1.23161 0.88147,1.23161 0.60394,0 0.82077,0.22513 0.64871,0.6735 -0.15727,0.40985 -2.90497,1.09871 -3.20113,0.80255 -0.10801,-0.10802 0.0118,-0.34861 0.26621,-0.53466 0.25444,-0.18604 0.46261,-0.64407 0.46261,-1.01783 0,-0.37376 -0.77867,-3.0372 -1.73037,-5.91876 -1.67114,-5.05986 -2.82588,-7.657244 -3.27959,-7.37684 -0.11971,0.074 -0.16866,0.70195 -0.10878,1.39547 0.0941,1.09015 0.0629,1.19343 -0.23047,0.76249 -1.43267,-2.10454 -2.44683,-2.551954 -3.23474,-1.42704 -0.915932,1.30767 -0.428862,2.1515 3.85778,6.68346 1.99561,2.10982 2.76053,3.43145 3.0155,5.21022 0.45924,3.20381 -1.91086,5.07097 -4.09937,3.22947 z m 8.9854,-2.87793 c -0.13811,-0.36327 -0.5077,-1.58366 -0.82131,-2.71198 -0.88401,-3.1805 -2.62874,-8.47408 -3.4569,-10.488404 -0.41208,-1.002285 -0.74924,-1.984555 -0.74924,-2.182815 0,-1.14124 1.98981,0.452 3.27537,2.622609 0.4977,0.84034 1.41169,2.89542 2.03108,4.56685 0.61939,1.67143 1.15036,3.00795 1.17992,2.97004 0.0959,-0.123 -0.32215,-2.9279 -0.74513,-4.99957 -0.22686,-1.11111 -0.85514,-2.988594 -1.39617,-4.172189 -0.54103,-1.18358 -0.89589,-2.23902 -0.78858,-2.34541 0.29026,-0.28778 1.40928,1.22513 1.91176,2.58468 0.69797,1.888479 0.8815,1.830889 0.88536,-0.27781 0.002,-1.08413 0.0757,-2.24034 0.16391,-2.56935 0.19079,-0.71201 1.25966,-1.05485 1.82525,-0.58545 0.32314,0.26818 0.48888,0.24877 0.8773,-0.10275 0.51457,-0.46568 2.95076,-0.62199 2.95076,-0.18932 0,0.13423 -0.41667,0.38158 -0.92594,0.54965 -1.0604,0.34996 -1.06187,0.20814 0.0414,3.968785 0.36288,1.236934 0.71838,2.457324 0.79,2.711984 0.0772,0.27435 0.38613,0.46302 0.75824,0.46302 0.87602,0 1.04085,0.4172 0.35471,0.89779 -0.54113,0.37902 -0.55924,0.494 -0.28417,1.80404 0.16159,0.76957 0.3713,2.02416 0.46604,2.78798 0.19827,1.59868 0.34695,1.75676 1.30841,1.39121 0.48199,-0.18325 0.86775,-0.17726 1.23478,0.0192 0.50878,0.27229 0.51225,0.30949 0.074,0.79379 -0.25291,0.27946 -0.59021,0.51076 -0.74956,0.51399 -0.15934,0.003 -0.58737,0.23871 -0.95118,0.52328 -0.83526,0.65336 -1.49689,0.66708 -1.88902,0.0392 -0.29784,-0.47693 -0.31906,-0.47693 -0.79599,0 -0.26949,0.26949 -0.59991,0.48999 -0.73427,0.48999 -0.5251,0 -1.97234,-1.48742 -2.43499,-2.5026 -0.48731,-1.06927 -0.48731,-1.06927 -0.32065,1.27266 0.15346,2.15654 0.12919,2.33457 -0.30658,2.24896 -0.58641,-0.11521 -0.7562,-0.44346 -1.34825,-2.60652 -1.12396,-4.10644 -3.78751,-10.16676 -4.26048,-9.69379 -0.0597,0.0597 0.32811,1.22345 0.86183,2.58608 0.53373,1.36262 1.13725,3.01328 1.34116,3.66813 0.46207,1.48388 1.42058,5.67728 1.42058,6.2149 0,0.63429 -0.51778,0.46408 -0.79338,-0.26081 z m 6.081,-4.2784 c 0.002,-0.46082 0.1404,-0.8833 0.30706,-0.93885 0.22113,-0.0737 0.18964,-0.63375 -0.11655,-2.07257 -0.23076,-1.08436 -0.49682,-2.50735 -0.59125,-3.16219 -0.27551,-1.91064 -1.20021,-4.457619 -1.56097,-4.299489 -0.38119,0.16709 -0.57576,0.01 -0.90291,-0.7291 -1.20789,-2.72881 -0.91136,2.801839 0.45836,8.548919 0.59085,2.4791 0.82604,3.05968 1.52099,3.75463 0.54756,0.54757 0.87929,0.13487 0.88527,-1.10135 z M 41.401949,97.037681 c -1.14969,-1.11656 -1.38717,-2.06438 -0.99299,-3.96314 0.37223,-1.79302 2.07443,-3.82833 3.77145,-4.50949 2.048042,-0.82205 9.603912,-1.00148 11.379132,-0.27021 0.59918,0.24682 0.59222,0.99351 -0.0144,1.54247 -0.26256,0.23762 -1.5688,0.7155 -2.90274,1.06197 -1.33395,0.34647 -2.67786,0.79761 -2.98648,1.00252 -0.30862,0.20491 -1.07022,1.32306 -1.69244,2.48476 -1.3826,2.58133 -2.57514,3.54541 -4.401922,3.55861 -1.0355,0.007 -1.35635,-0.12734 -2.15964,-0.90749 z m 24.278212,-9.94911 c -1.97754,-0.58961 -1.94026,-3.01691 0.0654,-4.25646 1.86276,-1.15125 6.20956,-0.14929 6.93338,1.59819 0.45484,1.09809 0.19426,1.35212 -1.39229,1.35734 -1.04341,0.003 -1.69133,0.19307 -2.69636,0.78924 -1.40991,0.83632 -1.6687,0.88183 -2.91011,0.51169 z m -8.99614,-1.84901 c -0.58208,-0.12155 -3.32052,-0.63933 -6.08542,-1.15061 -7.362632,-1.3615 -13.022002,-2.66879 -14.961882,-3.45613 -4.76236,-1.93291 -12.60796,-8.24791 -15.296366,-12.31219 -1.333729,-2.01631 -1.680684,-2.76438 -3.313281,-7.14375 -2.112653,-5.66711 -3.659122,-11.77833 -4.06907,-16.07984 -0.309328,-3.24573 -0.200342,-15.53383 0.164169,-18.50997 0.564474,-4.60878 2.401449,-9.978449 5.590793,-16.342478 1.281243,-2.5566005 1.547697,-2.9206605 2.19177,-2.9946805 1.453865,-0.16708 4.306395,2.3777004 4.896325,4.3680805 0.17387,0.58663 0.37646,4.524609 0.48474,9.422338 0.18603,8.41449 0.18603,8.41449 -0.38146,8.56289 -0.31212,0.0816 -0.50227,0.25393 -0.42256,0.38291 0.0797,0.12897 0.0261,0.2345 -0.11905,0.2345 -0.39017,0 -0.11048,6.68334 0.34368,8.21267 0.5836,1.9652 0.91022,2.46632 1.36273,2.09076 0.20814,-0.17273 0.37843,-0.48985 0.37843,-0.7047 0,-0.21485 0.16732,-0.76582 0.37182,-1.22437 0.69162,-1.55079 2.27566,-7.28344 2.18214,-7.89715 -0.0961,-0.63046 -0.26634,-0.6876 -2.42186,-0.81267 -1.05852,-0.0614 -1.05852,-0.0614 -0.62063,-0.98746 0.24084,-0.50932 0.88287,-1.9976 1.42673,-3.30729 1.19146,-2.8692 3.294,-6.13382 5.79366,-8.995829 2.06303,-2.362099 1.86701,-2.171949 6.00697,-5.827149 5.475422,-4.8343105 5.356572,-4.7592105 7.495582,-4.7361605 1.51167,0.0163 2.17908,0.17416 3.57808,0.8464 0.94589,0.45451 1.90871,0.98129 2.1396,1.17061 1.68439,1.38112 1.34528,4.2877505 -1.19178,10.2152185 -1.71534,4.00762 -2.06732,6.33065 -2.55226,16.84453 -0.36385,7.8885 -0.18647,10.16556 1.345,17.26566 0.76533,3.54818 2.92024,9.86342 4.38482,12.85027 1.56211,3.18577 3.05105,5.19451 5.83064,7.86617 1.88891,1.81556 2.62977,2.34678 3.79506,2.72118 2.39909,0.77082 3.24087,1.94953 2.11798,2.96573 -0.51986,0.47046 -0.60096,0.46502 -2.84428,-0.19078 -9.92164,-2.90045 -12.0516,-3.83468 -14.96323,-6.56314 -2.36525,-2.21644 -6.085052,-6.74696 -7.157562,-8.71751 -1.50852,-2.77165 -4.99613,-13.05168 -5.56276,-16.39672 -0.48372,-2.85558 -0.57194,-9.71775 -0.14732,-11.45895 0.91619,-3.757 2.06886,-9.87031 1.894,-10.04516 -0.34017,-0.34018 -1.36695,0.55874 -2.28782,2.00292 -1.79134,2.80935 -5.74554,14.57765 -6.25562,18.61767 -0.1843,1.45982 -0.46031,2.5693 -0.68569,2.75635 -0.20748,0.17219 -0.86936,0.32286 -1.47086,0.33484 -0.9913,0.0197 -1.15991,-0.0773 -1.802,-1.03657 -1.13663,-1.69816 -2.84521,-5.81883 -3.32581,-8.02102 -0.24404,-1.11823 -0.483827,-3.46189 -0.532865,-5.20814 -0.04904,-1.74625 -0.150666,-3.4356 -0.225837,-3.7541 -0.07517,-0.3185 -0.01718,-0.65295 0.128878,-0.74322 0.146055,-0.0903 0.265555,-0.038 0.265555,0.11608 0,0.63198 0.530319,0.21982 0.745889,-0.5797 0.22286,-0.82653 0.20753,-2.73026 -0.0655,-8.13594 -0.47416,-9.387628 -0.666067,-9.865278 -2.444893,-6.085408 -1.454903,3.091548 -1.675068,3.644528 -1.675068,4.207168 0,0.30543 -0.124282,0.55533 -0.276181,0.55533 -0.1519,0 -0.245983,0.14882 -0.209073,0.33072 0.03691,0.18191 -0.07141,0.58048 -0.240717,0.88573 -0.63449,1.14395 -1.386801,4.8466 -1.634389,8.04396 -0.249764,3.22547 -0.198293,13.3643 0.07589,14.94896 0.07554,0.43656 0.20877,1.39739 0.296077,2.13518 0.08731,0.73779 0.575356,2.88091 1.084555,4.7625 0.509199,1.88159 1.046168,3.89263 1.193264,4.46899 0.147097,0.57635 0.363534,1.17166 0.48097,1.32291 0.117437,0.15125 0.663319,1.61446 1.213071,3.25156 0.549752,1.63711 1.087394,2.97657 1.194759,2.97657 0.107366,0 0.268549,0.36669 0.358185,0.81487 0.24456,1.2228 0.97614,2.62471 1.36969,2.62471 0.19134,0 0.78974,0.41672 1.32978,0.92604 1.42264,1.34172 1.82374,1.21266 1.04566,-0.33646 -1.00203,-1.995 -1.23186,-2.5925 -1.84977,-4.80882 -0.23546,-0.84454 -0.73096,-1.78074 -1.19698,-2.26155 -0.43737,-0.45124 -0.795208,-0.99615 -0.795208,-1.21091 0,-0.21476 -0.720054,-2.17362 -1.60012,-4.35303 -0.880066,-2.17941 -1.653428,-4.21461 -1.718582,-4.52266 -0.06515,-0.30806 -0.31149,-1.02209 -0.547412,-1.58673 -0.635206,-1.52026 -1.381547,-6.6109 -1.380812,-9.41824 3.44e-4,-1.35182 0.2259,-3.82707 0.501214,-5.50055 0.275314,-1.67349 0.503228,-3.07248 0.506475,-3.10886 0.0032,-0.0364 0.251055,-0.0661 0.550685,-0.0661 0.357216,0 0.48166,-0.11387 0.361446,-0.33073 -0.100835,-0.1819 0.282332,0.18552 0.851483,0.81649 1.03482,1.14722 1.03482,1.14722 0.81025,3.70416 -0.123513,1.40632 -0.15444,4.20195 -0.06873,6.2125 0.142835,3.35042 0.232753,3.85236 1.077262,6.01357 0.506781,1.29691 0.921419,2.43189 0.921419,2.52218 0,0.0903 0.16805,0.53933 0.37343,0.99788 0.20539,0.45855 1.05226,2.56014 1.88193,4.67019 2.68545,6.82972 4.86248,11.0449 7.55233,14.62284 2.62753,3.49505 2.94262,3.81443 5.53814,5.61347 1.44682,1.00284 2.45472,1.4071 6.35,2.54694 2.546612,0.74518 4.868332,1.41147 5.159372,1.48062 2.3272,0.553 9.0293,2.88938 9.42579,3.28588 0.62151,0.62151 0.67221,2.22397 0.0776,2.45215 -0.48915,0.18771 -0.68122,0.17686 -2.09502,-0.11838 z m -4.37422,-16.93499 c -0.15103,-0.28221 -0.20278,-0.51311 -0.11499,-0.51311 0.0878,0 -0.0807,-0.33752 -0.37447,-0.75005 -0.29374,-0.41253 -0.59527,-1.0875 -0.67006,-1.49992 -0.0748,-0.41243 -0.27453,-0.8355 -0.44387,-0.94016 -0.16934,-0.10466 -0.22608,-0.32266 -0.12609,-0.48446 0.1,-0.16179 0.0359,-0.29416 -0.14249,-0.29416 -0.17836,0 -0.24596,-0.0783 -0.1502,-0.17409 0.0958,-0.0958 0.0631,-0.30781 -0.0725,-0.47124 -0.13564,-0.16343 -0.3058,-0.5911 -0.37814,-0.95039 -0.0723,-0.35928 -0.2559,-1.01043 -0.40793,-1.44699 -0.45106,-1.29533 -2.331,-8.34861 -2.64451,-9.92187 -0.1595,-0.80037 -0.3491,-2.11005 -0.42133,-2.91042 -0.0722,-0.80036 -0.18719,-1.81239 -0.25545,-2.24896 -0.13721,-0.87755 -0.12889,-12.42107 0.01,-13.89062 0.0481,-0.50932 0.15649,-1.93807 0.24078,-3.175 0.13383,-1.9638 0.34369,-3.75026 0.79259,-6.74688 0.25994,-1.73518 0.67711,-3.36226 1.16953,-4.561439 1.94541,-4.737649 2.24895,-6.048659 1.53722,-6.639349 -0.18913,-0.15695 -0.8142,-0.35836 -1.38907,-0.44757 -0.84335,-0.13088 -1.20153,-0.0437 -1.85467,0.45141 -1.37036,1.03881 -1.74789,1.36601 -3.003742,2.60326 -1.37692,1.35653 -3.72741,3.305759 -3.72741,3.091089 0,-0.0783 -0.59531,0.45607 -1.32292,1.18751 -1.22888,1.235359 -1.44654,1.582909 -1.34769,2.151949 0.0208,0.11995 -0.0841,0.14269 -0.23325,0.0505 -0.14913,-0.0922 -0.27114,0.018 -0.27114,0.24491 0,0.22687 -0.11477,0.41249 -0.25505,0.41249 -0.34412,0 -1.59703,1.87129 -1.59703,2.38526 0,0.3949 0.88194,0.53106 1.46857,0.22672 0.13817,-0.0717 0.6084,-0.0914 1.04497,-0.0439 0.43656,0.0476 1.29974,0.11426 1.91818,0.14824 0.61844,0.034 1.12445,0.15811 1.12448,0.27584 2e-5,0.11773 0.11313,0.14416 0.25135,0.0587 1.00617,-0.62185 1.05959,4.82375 0.093,9.4803 -1.04559,5.03714 -1.12682,10.6296 -0.20611,14.1917 0.35733,1.38245 0.81398,2.93026 1.01478,3.43958 0.20081,0.50933 0.51617,1.4023 0.7008,1.98438 0.18464,0.58208 0.45817,1.35599 0.60786,1.71979 0.14969,0.3638 0.28214,0.74083 0.29433,0.83785 0.0122,0.097 0.11147,0.26568 0.22061,0.37482 0.10914,0.10914 0.19843,0.39444 0.19843,0.63399 0,0.23956 0.29766,1.05257 0.661462,1.80669 0.3638,0.75413 0.66146,1.49315 0.66146,1.64228 0,0.83423 5.01582,7.45584 6.93798,9.15915 0.49017,0.43436 0.78229,0.151 0.46176,-0.44792 z m 25.10119,16.28111 c -1.09319,-0.59374 -1.67848,-2.44696 -1.66908,-5.28485 0.0122,-3.68449 1.02833,-5.38006 3.96086,-6.6093 1.60253,-0.67174 4.05764,-0.71982 5.42798,-0.1063 1.4033,0.62827 1.77395,1.10495 2.00204,2.57475 0.39873,2.56942 -1.04615,4.51167 -3.77608,5.07593 -1.40968,0.29137 -2.81457,1.00714 -3.33281,1.69801 -0.11441,0.15253 -0.14772,0.68859 -0.074,1.19124 0.2373,1.61826 -0.96987,2.3127 -2.5389,1.46052 z m 4.49632,-8.062 c 0.0493,-0.14787 0.19851,-0.20155 0.3316,-0.11929 0.13309,0.0823 0.24198,0.0235 0.24198,-0.13065 0,-0.15411 -0.23812,-0.2802 -0.52916,-0.2802 -0.29104,0 -0.4994,0.14342 -0.46302,0.31871 0.0364,0.17528 -0.0728,0.32411 -0.24254,0.33073 -0.16977,0.007 -0.39424,0.0976 -0.49882,0.20216 -0.10458,0.10458 0.0935,0.13552 0.4401,0.0688 0.34663,-0.0668 0.67057,-0.24236 0.71986,-0.39023 z m 7.6769,7.51125 c -0.49436,-0.49436 -0.99262,-0.70057 -1.75814,-0.72761 -1.29623,-0.0458 -1.50844,-0.22273 -1.12544,-0.93838 0.43053,-0.80444 1.66872,-1.34831 3.06962,-1.34831 1.0463,0 1.36472,0.13449 2.12981,0.89958 1.04247,1.04247 1.1425,1.81068 0.31154,2.39271 -0.86711,0.60735 -1.84558,0.50382 -2.62739,-0.27799 z m 28.453539,-4.47135 c -0.38785,-0.29363 -0.41081,-0.3809 -0.10269,-0.39023 0.21828,-0.007 0.66476,-0.0838 0.99219,-0.17157 0.72535,-0.19439 0.80083,0.30274 0.10269,0.67637 -0.35442,0.18968 -0.63276,0.15754 -0.99219,-0.11457 z m -47.357259,-4.06248 c -0.56754,-0.41636 -2.34954,-2.113 -3.96,-3.77031 -3.23584,-3.32997 -4.61185,-5.40523 -6.03295,-9.0987 -1.30491,-3.39148 -3.4186,-10.66425 -4.1524,-14.2875 -0.72093,-3.5597 -1.02283,-14.08215 -0.52379,-18.2563 0.44491,-3.72139 2.3004,-11.80221 3.60432,-15.697098 1.24283,-3.71242 3.67826,-6.3032105 6.49262,-6.9067805 1.60678,-0.34459 3.554,-0.0812 7.82042,1.05794 7.96045,2.1254005 13.96452,5.1047305 18.67295,9.2658795 4.16129,3.677599 5.94765,5.765709 8.273539,9.671079 3.29355,5.53016 4.49005,11.61226 3.46613,17.61923 -0.77857,4.56751 -3.10194,10.45334 -5.667899,14.35855 -3.2886,5.005 -11.36748,10.34914 -17.54512,11.606 -2.21264,0.45017 -3.08648,0.34599 -6.00537,-0.71593 -2.22554,-0.80968 -3.01936,-0.87379 -3.50934,-0.28339 -0.55128,0.66424 -0.3689,1.96637 0.52057,3.71673 0.45195,0.88938 0.82172,1.81068 0.82172,2.04733 0,0.68053 -1.12204,0.51942 -2.2754,-0.32673 z m 12.85874,-9.12872 c 1.23692,-0.60195 2.40629,-1.24329 2.59858,-1.42519 0.1923,-0.1819 0.51972,-0.33073 0.72761,-0.33073 0.20788,0 0.37797,-0.0989 0.37797,-0.21987 0,-0.12093 0.32743,-0.38629 0.72761,-0.58969 0.40018,-0.2034 1.02526,-0.65447 1.38906,-1.00239 0.3638,-0.34792 1.17518,-0.98655 1.80307,-1.41919 1.11044,-0.76513 3.22221,-2.87289 3.4886,-3.48199 0.0728,-0.16636 0.61837,-1.01592 1.21246,-1.8879 2.2382,-3.28513 3.786446,-7.04927 4.817389,-11.71209 0.34811,-1.57447 0.37731,-5.79878 0.0489,-7.07125 -0.15023,-0.58209 -0.3195,-1.25154 -0.37614,-1.48768 -0.21193,-0.88353 -1.825679,-4.61356 -2.169859,-5.01545 -0.19675,-0.22974 -0.35773,-0.55716 -0.35773,-0.7276 0,-0.17044 -0.0952,-0.3099 -0.21143,-0.3099 -0.11629,0 -0.35362,-0.38695 -0.5274,-0.85989 -0.17379,-0.47295 -0.74098,-1.30638 -1.26044,-1.85209 -0.51946,-0.5457 -0.85762,-0.99218 -0.75146,-0.99218 0.32786,0 -4.40738,-4.60712 -6.63299,-6.45352 -1.15922,-0.96171 -2.25063,-1.748569 -2.42535,-1.748569 -0.17472,0 -0.35736,-0.1078 -0.40586,-0.23956 -0.13889,-0.37727 -4.20001,-2.430839 -4.47325,-2.261969 -0.13483,0.0833 -0.24516,0.0335 -0.24516,-0.11086 0,-0.30412 -1.02379,-0.69883 -1.5479,-0.59678 -0.19651,0.0383 -0.27878,-0.0575 -0.18282,-0.21271 0.10427,-0.16873 -0.0713,-0.28294 -0.43647,-0.28391 -0.33601,-9e-4 -0.95196,-0.17949 -1.36878,-0.39688 -0.41682,-0.21738 -0.85555,-0.39524 -0.97496,-0.39524 -0.11941,0 -0.55229,-0.13736 -0.96194,-0.30524 -0.40966,-0.16788 -0.88845,-0.33518 -1.06398,-0.37177 -0.17553,-0.0366 -0.8899,-0.25567 -1.5875,-0.48685 -0.69759,-0.23117 -1.62554,-0.46897 -2.0621,-0.52844 -0.43657,-0.0595 -1.2441,-0.18723 -1.79453,-0.28393 -1.56205,-0.27441 -2.65669,0.23693 -3.83417,1.79107 -1.42416,1.87973 -2.742,4.583859 -3.06363,6.286368 -0.24096,1.27554 -1.52888,6.70554 -1.62881,6.86722 -0.0562,0.0908 -0.17574,0.75224 -0.26576,1.46973 -0.09,0.7175 -0.21449,1.48493 -0.27659,1.70539 -0.67877,2.40969 -0.60921,12.71161 0.11507,17.04202 0.48884,2.92269 3.3178,12.52096 3.84609,13.04925 0.0855,0.0855 0.15545,0.42334 0.15545,0.75076 0,0.32743 0.11013,0.635 0.24474,0.68351 0.13461,0.0485 0.28344,0.25939 0.33073,0.46862 0.17002,0.75218 1.68891,3.42304 2.40141,4.22269 0.40001,0.44895 0.72729,0.92284 0.72729,1.05311 0,0.33939 1.42399,0.50136 2.1257,0.24178 1.31213,-0.48539 6.92235,-0.25859 7.88702,0.31884 0.24107,0.1443 1.15269,0.24956 2.02582,0.2339 1.2868,-0.0231 2.0135,-0.2358 3.83646,-1.12295 z m -8.06979,-5.22071 c -2.91698,-0.15785 -5.29612,-0.81329 -6.63126,-1.82688 -1.29967,-0.98665 -2.56589,-3.04203 -2.89745,-4.70326 -0.28222,-1.41399 -0.8425,-5.92751 -1.05834,-8.5259 -0.0786,-0.94589 -0.19731,-2.07698 -0.26385,-2.51354 -0.0665,-0.43657 -0.19453,-1.86532 -0.28443,-3.175 -0.0899,-1.30969 -0.25306,-3.21469 -0.36259,-4.23334 -0.20605,-1.91639 -0.14711,-7.76605 0.0946,-9.3927 0.0757,-0.50933 0.32881,-1.75948 0.56247,-2.77813 0.23367,-1.01865 0.46607,-2.09021 0.51646,-2.38125 0.13365,-0.77199 1.21165,-3.09592 1.6303,-3.51457 0.19783,-0.197829 0.35968,-0.655859 0.35968,-1.017859 0,-0.37141 0.11528,-0.58693 0.26459,-0.49465 0.14552,0.0899 0.26458,-0.0577 0.26458,-0.32811 0,-1.070689 3.79584,-1.631029 7.39405,-1.091519 1.5929,0.23884 5.4397,1.855229 5.89721,2.477959 0.10691,0.14552 0.19621,0.15453 0.19844,0.02 0.002,-0.13451 0.27194,8.7e-4 0.59936,0.30087 0.32742,0.299989 1.10133,0.799409 1.71979,1.109829 0.61847,0.31042 1.12448,0.6666 1.12448,0.79151 0,0.12491 0.35719,0.37506 0.79375,0.55589 0.43656,0.18083 0.79375,0.42538 0.79375,0.54344 0,0.11806 0.20836,0.28471 0.46302,0.37033 0.25466,0.0856 1.07394,0.71873 1.82062,1.40689 0.74667,0.68817 1.7587,1.61973 2.24895,2.07014 2.76907,2.54401 6.23125,7.8361 6.35802,9.71848 0.036,0.53458 0.17477,0.97197 0.30836,0.97197 0.1336,0 0.10349,0.16799 -0.0669,0.37332 -0.17041,0.20532 -0.2035,0.43903 -0.0735,0.51935 0.45581,0.2817 0.31904,6.57367 -0.18538,8.52885 -0.68716,2.6635 -2.86009,6.57926 -4.73583,8.53424 -0.48079,0.5011 -1.0341,1.22019 -1.22957,1.59798 -1.00634,1.94487 -4.89443,5.05349 -6.7662,5.40975 -0.36029,0.0686 -0.83882,0.19813 -1.0634,0.28791 -0.83604,0.33422 -4.97743,0.54038 -7.79375,0.38797 z m 5.47708,-3.71187 c 3.04315,-0.64569 5.01477,-2.27584 8.60035,-7.11084 3.20479,-4.32154 4.04946,-6.19309 4.42853,-9.81248 0.16227,-1.54935 -0.37138,-5.04396 -0.93436,-6.11866 -0.79687,-1.52121 -3.54312,-5.02586 -5.41283,-6.90763 -3.56298,-3.58597 -9.97695,-7.69929 -14.08973,-9.03583 -2.16675,-0.704139 -2.56495,-0.485239 -3.73281,2.05202 -1.3039,2.83281 -1.29934,2.81908 -1.89526,5.70848 -0.6544,3.17294 -0.65158,6.46131 0.012,14.05994 1.13499,12.9958 1.40865,14.30763 3.28288,15.73718 1.88533,1.43801 2.75862,1.70352 5.64014,1.71477 1.48442,0.006 3.32989,-0.12333 4.10104,-0.28695 z m 11.69284,18.15129 c -0.90323,-1.37851 0.007,-3.9276 2.54191,-7.11731 2.31677,-2.91541 5.776809,-5.18762 8.690699,-5.7072 3.46573,-0.61797 6.41835,0.74582 7.56676,3.49503 0.55627,1.33165 0.51693,2.19521 -0.1544,3.38968 -1.4353,2.55378 -7.55202,4.04834 -9.68898,2.36741 -1.23754,-0.97345 -2.447379,-0.5209 -4.958059,1.85459 -2.71691,2.57062 -3.28047,2.81277 -3.99793,1.7178 z m 13.667169,-7.14497 c 0.91145,-0.47133 0.98458,-0.91723 0.2582,-1.57459 -0.39326,-0.35589 -0.7707,-0.43307 -1.52669,-0.31219 -1.86984,0.299 -3.87305,1.71923 -2.51496,1.78304 0.75212,0.0353 2.03185,0.26825 2.15598,0.39239 0.22284,0.22284 0.85529,0.11067 1.62747,-0.28865 z M 19.476317,30.286771 c -0.329107,-0.41964 -0.319749,-0.429 0.09989,-0.0999 0.254662,0.19972 0.463021,0.40808 0.463021,0.46302 0,0.21776 -0.217272,0.0776 -0.562916,-0.36313 z"
       id="path66" />
  </g>
</svg>
